<svg width="393" height="400" viewBox="0 0 393 400" fill="none" xmlns="http://www.w3.org/2000/svg">
<circle cx="199" cy="199.999" r="174.06" transform="rotate(-10.2783 199 199.999)" fill="#181818" stroke="#FAFAFA" stroke-width="4"/>
<circle cx="199" cy="200" r="152.563" transform="rotate(-10.2783 199 200)" stroke="#FAFAFA" stroke-width="4"/>
<path d="M99.8458 225.839L88.8054 164.957L105.306 161.965C109.734 161.162 113.147 161.663 115.547 163.467C117.965 165.243 119.624 168.611 120.523 173.569L121.006 176.233C121.524 179.092 121.426 181.504 120.71 183.468C120.017 185.428 118.672 186.875 116.674 187.809C119.543 188.003 121.672 189.296 123.058 191.689C124.464 194.054 125.499 197.07 126.164 200.737C126.879 204.68 127.135 208.195 126.933 211.281C126.73 214.366 125.809 216.903 124.168 218.892C122.528 220.881 119.921 222.199 116.346 222.847L99.8458 225.839ZM104.864 185.734L107.355 185.282C108.485 185.078 109.132 184.508 109.296 183.573C109.46 182.638 109.431 181.559 109.209 180.337L108.099 174.214C107.743 172.254 106.701 171.431 104.971 171.744L102.411 172.209L104.864 185.734ZM111.012 212.738C114.171 212.166 115.479 210.38 114.935 207.382L113.555 199.772C113.242 198.042 112.73 196.73 112.019 195.834C111.328 194.912 110.267 194.58 108.838 194.839L106.589 195.247L109.788 212.889C110.304 212.843 110.712 212.793 111.012 212.738ZM133.502 219.736L128.343 157.788L148.994 154.043L165.811 213.877L154.292 215.966L151.646 206.299L144.312 207.629L145.333 217.591L133.502 219.736ZM143.415 197.752L148.949 196.748L140.671 166.271L140.118 166.371L143.415 197.752ZM170.964 212.943L159.924 152.061L178.604 148.673C181.717 148.109 184.199 148.397 186.049 149.538C187.896 150.657 189.316 152.448 190.311 154.911C191.324 157.348 192.143 160.284 192.766 163.72C193.368 167.041 193.422 169.77 192.929 171.908C192.458 174.042 191.127 175.701 188.936 176.884C190.921 176.929 192.432 177.644 193.469 179.028C194.525 180.384 195.271 182.262 195.706 184.66L199.883 207.699L187.88 209.875L183.558 186.041C183.236 184.266 182.668 183.237 181.855 182.956C181.061 182.647 179.856 182.64 178.242 182.932L183.279 210.71L170.964 212.943ZM176.398 172.369L179.338 171.836C181.022 171.531 181.531 169.545 180.866 165.878C180.435 163.503 179.969 161.979 179.466 161.308C178.963 160.637 178.204 160.394 177.189 160.578L174.353 161.092L176.398 172.369ZM206.143 206.564L195.103 145.682L207.625 143.411L218.517 171.556L213.229 142.395L224.99 140.262L236.031 201.144L224.131 203.302L212.523 173.965L218.043 204.406L206.143 206.564ZM242.844 199.908L231.804 139.026L256.156 134.61L258.289 146.371L246.32 148.542L248.472 160.407L259.957 158.324L262.033 169.774L250.548 171.857L253.076 185.798L265.841 183.483L267.992 195.348L242.844 199.908ZM288.016 192.288C282.459 193.296 278.195 192.64 275.226 190.32C272.279 187.996 270.258 183.813 269.163 177.771L268.084 171.821L280.122 169.638L281.502 177.249C281.757 178.655 282.165 179.725 282.727 180.456C283.307 181.161 284.128 181.417 285.188 181.225C286.295 181.024 286.998 180.563 287.296 179.842C287.617 179.117 287.644 178.017 287.376 176.541C287.037 174.673 286.57 173.149 285.976 171.971C285.377 170.77 284.513 169.687 283.386 168.725C282.278 167.735 280.778 166.625 278.888 165.396L272.481 161.198C267.701 158.087 264.861 154.052 263.962 149.094C263.021 143.905 263.503 139.733 265.408 136.577C267.336 133.416 270.583 131.422 275.149 130.594C280.73 129.582 284.955 130.352 287.824 132.905C290.716 135.453 292.711 139.76 293.811 145.825L281.427 148.071L280.668 143.885C280.518 143.055 280.158 142.453 279.59 142.08C279.046 141.702 278.37 141.587 277.562 141.733C276.594 141.909 275.929 142.315 275.568 142.952C275.226 143.562 275.133 144.294 275.287 145.147C275.442 146 275.84 146.881 276.481 147.789C277.122 148.697 278.24 149.673 279.835 150.718L288.08 156.19C289.73 157.272 291.278 158.456 292.726 159.742C294.17 161.005 295.429 162.563 296.504 164.417C297.574 166.247 298.366 168.581 298.881 171.417C299.918 177.137 299.67 181.814 298.138 185.451C296.625 189.06 293.251 191.339 288.016 192.288ZM184.905 287.654L173.865 226.772L198.218 222.356L200.37 234.221L188.262 236.417L190.019 246.102L201.503 244.02L203.63 255.747L192.145 257.829L197.151 285.434L184.905 287.654ZM228.902 280.248C224.497 281.046 220.697 280.318 217.501 278.063C214.328 275.804 212.294 272.207 211.399 267.272L206.306 239.183C205.235 233.279 205.58 228.548 207.341 224.989C209.124 221.426 212.656 219.166 217.937 218.208C220.82 217.686 223.476 217.752 225.905 218.407C228.358 219.058 230.422 220.327 232.098 222.215C233.77 224.079 234.897 226.614 235.478 229.82L237.385 240.336L225.278 242.531L223.647 233.537C223.317 231.715 222.864 230.535 222.29 229.996C221.712 229.434 220.938 229.241 219.97 229.416C218.84 229.621 218.154 230.174 217.913 231.076C217.667 231.954 217.668 233.073 217.914 234.434L223.441 264.91C223.746 266.593 224.203 267.737 224.813 268.341C225.446 268.941 226.224 269.157 227.146 268.99C228.184 268.801 228.833 268.243 229.093 267.315C229.377 266.382 229.395 265.235 229.148 263.875L227.16 252.909L239.405 250.688L241.494 262.207C242.465 267.558 241.82 271.688 239.561 274.599C237.298 277.487 233.745 279.369 228.902 280.248Z" fill="#FAFAFA"/>
</svg>
