<svg width="98" height="22" viewBox="0 0 98 22" fill="none" xmlns="http://www.w3.org/2000/svg">
<path d="M0.914062 21V0.375H6.50391C8.00391 0.375 9.09375 0.742187 9.77344 1.47656C10.4609 2.20312 10.8047 3.40625 10.8047 5.08594V5.98828C10.8047 6.95703 10.6289 7.74219 10.2773 8.34375C9.93359 8.94531 9.40625 9.33984 8.69531 9.52734C9.625 9.76172 10.2461 10.3125 10.5586 11.1797C10.8789 12.0391 11.0391 13.0898 11.0391 14.332C11.0391 15.668 10.9141 16.8359 10.6641 17.8359C10.4141 18.8359 9.96094 19.6133 9.30469 20.168C8.64844 20.7227 7.71484 21 6.50391 21H0.914062ZM4.94531 8.14453H5.78906C6.17188 8.14453 6.41797 7.99609 6.52734 7.69922C6.63672 7.40234 6.69141 7.04688 6.69141 6.63281V4.55859C6.69141 3.89453 6.39844 3.5625 5.8125 3.5625H4.94531V8.14453ZM5.35547 17.3672C6.42578 17.3672 6.96094 16.8594 6.96094 15.8438V13.2656C6.96094 12.6797 6.87109 12.2188 6.69141 11.8828C6.51953 11.5391 6.19141 11.3672 5.70703 11.3672H4.94531V17.3438C5.11719 17.3594 5.25391 17.3672 5.35547 17.3672ZM12.3159 21L14.3081 0.375H21.3042L23.2612 21H19.3589L19.0659 17.6719H16.5816L16.3237 21H12.3159ZM16.8745 14.3789H18.7495L17.8472 3.89062H17.6597L16.8745 14.3789ZM25.0069 21V0.375H31.335C32.3897 0.375 33.1866 0.617188 33.7256 1.10156C34.2647 1.57813 34.6241 2.25 34.8037 3.11719C34.9912 3.97656 35.085 4.98828 35.085 6.15234C35.085 7.27734 34.9405 8.17578 34.6514 8.84766C34.3702 9.51953 33.835 9.98438 33.0459 10.2422C33.6944 10.375 34.1475 10.6992 34.4053 11.2148C34.6709 11.7227 34.8037 12.3828 34.8037 13.1953V21H30.7373V12.9258C30.7373 12.3242 30.6123 11.9531 30.3623 11.8125C30.1202 11.6641 29.7256 11.5898 29.1787 11.5898V21H25.0069ZM29.2022 8.01562H30.1983C30.7686 8.01562 31.0537 7.39453 31.0537 6.15234C31.0537 5.34766 30.9912 4.82031 30.8662 4.57031C30.7412 4.32031 30.5069 4.19531 30.1631 4.19531H29.2022V8.01562ZM36.9244 21V0.375H41.1666L43.065 10.2539V0.375H47.0494V21H43.0181L40.9556 10.6875V21H36.9244ZM49.3575 21V0.375H57.6075V4.35938H53.5528V8.37891H57.4434V12.2578H53.5528V16.9805H57.877V21H49.3575ZM64.6266 21.1875C62.7438 21.1875 61.3844 20.7188 60.5484 19.7812C59.7203 18.8438 59.3063 17.3516 59.3063 15.3047V13.2891H63.3844V15.8672C63.3844 16.3438 63.4547 16.7188 63.5953 16.9922C63.7438 17.2578 63.9977 17.3906 64.357 17.3906C64.732 17.3906 64.9898 17.2812 65.1305 17.0625C65.2789 16.8438 65.3531 16.4844 65.3531 15.9844C65.3531 15.3516 65.2906 14.8242 65.1656 14.4023C65.0406 13.9727 64.8219 13.5664 64.5094 13.1836C64.2047 12.793 63.7789 12.3398 63.232 11.8242L61.3805 10.0664C59.9977 8.76172 59.3063 7.26953 59.3063 5.58984C59.3063 3.83203 59.7125 2.49219 60.525 1.57031C61.3453 0.648437 62.5289 0.1875 64.0758 0.1875C65.9664 0.1875 67.3063 0.691406 68.0953 1.69922C68.8922 2.70703 69.2906 4.23828 69.2906 6.29297H65.0953V4.875C65.0953 4.59375 65.0133 4.375 64.8492 4.21875C64.693 4.0625 64.4781 3.98438 64.2047 3.98438C63.8766 3.98438 63.6344 4.07812 63.4781 4.26562C63.3297 4.44531 63.2555 4.67969 63.2555 4.96875C63.2555 5.25781 63.3336 5.57031 63.4898 5.90625C63.6461 6.24219 63.9547 6.62891 64.4156 7.06641L66.7945 9.35156C67.2711 9.80469 67.7086 10.2852 68.107 10.793C68.5055 11.293 68.8258 11.8789 69.068 12.5508C69.3102 13.2148 69.4313 14.0273 69.4313 14.9883C69.4313 16.9258 69.0719 18.4453 68.3531 19.5469C67.6422 20.6406 66.4 21.1875 64.6266 21.1875ZM77.3991 21V0.375H85.6491V4.39453H81.5475V7.67578H85.4381V11.6484H81.5475V21H77.3991ZM92.2697 21.1875C90.7775 21.1875 89.5744 20.7227 88.6603 19.793C87.7541 18.8633 87.3009 17.5625 87.3009 15.8906V6.375C87.3009 4.375 87.6955 2.84375 88.4845 1.78125C89.2814 0.71875 90.5744 0.1875 92.3634 0.1875C93.34 0.1875 94.2072 0.367187 94.965 0.726562C95.7306 1.08594 96.3322 1.625 96.7697 2.34375C97.2072 3.05469 97.4259 3.95312 97.4259 5.03906V8.60156H93.3244V5.55469C93.3244 4.9375 93.2462 4.52344 93.09 4.3125C92.9337 4.09375 92.6916 3.98438 92.3634 3.98438C91.9806 3.98438 91.7228 4.125 91.59 4.40625C91.4572 4.67969 91.3908 5.04688 91.3908 5.50781V15.832C91.3908 16.4023 91.4728 16.8047 91.6369 17.0391C91.8087 17.2734 92.0509 17.3906 92.3634 17.3906C92.715 17.3906 92.9611 17.2461 93.1017 16.957C93.2502 16.668 93.3244 16.293 93.3244 15.832V12.1172H97.4728V16.0195C97.4728 17.832 97.0158 19.1484 96.1017 19.9688C95.1877 20.7812 93.9103 21.1875 92.2697 21.1875Z" fill="#181818"/>
</svg>
